<svg width="22" height="33" viewBox="0 0 22 33" fill="none" xmlns="http://www.w3.org/2000/svg">
<path d="M21.4702 22.1294C21.4702 23.354 21.1157 24.5052 20.4067 25.5828C19.7243 26.6605 18.7031 27.5668 17.34 28.3016C16.0051 29.0363 14.4161 29.4773 12.5714 29.6243V32.6001H9.80274V29.6243C7.1345 29.4037 4.97763 28.6812 3.33057 27.4566C1.68351 26.2319 0.859985 24.6155 0.859985 22.607H6.05527C6.14155 23.5621 6.49606 24.3582 7.12037 24.9951C7.74469 25.6073 8.63882 25.9993 9.80274 26.1708V18.0881C7.90156 17.6716 6.35333 17.2553 5.16117 16.8388C3.96901 16.3981 2.94782 15.7123 2.09605 14.7814C1.27253 13.8508 0.859985 12.5772 0.859985 10.9606C0.859985 8.92769 1.68351 7.24992 3.33057 5.9273C4.97763 4.58019 7.1345 3.79643 9.80274 3.57599V0.600098H12.5714V3.57599C15.0686 3.77193 17.0702 4.45773 18.5745 5.63338C20.1086 6.78455 20.9745 8.3766 21.1722 10.4095H15.9768C15.8921 9.65023 15.5517 8.97668 14.9557 8.38885C14.3596 7.77652 13.5643 7.36015 12.5714 7.13971V15.0754C14.4725 15.4672 16.0192 15.8837 17.2129 16.3245C18.4051 16.741 19.4122 17.4145 20.2357 18.3452C21.0592 19.2514 21.4702 20.5129 21.4702 22.1294ZM5.7996 10.7402C5.7996 11.7444 6.14155 12.5281 6.82233 13.0915C7.53135 13.6548 8.52587 14.1079 9.80274 14.4508V7.02948C8.58234 7.15196 7.60352 7.5316 6.8647 8.16841C6.15568 8.80523 5.7996 9.66248 5.7996 10.7402ZM12.5714 26.1708C13.82 25.9993 14.7988 25.5706 15.5094 24.8848C16.2184 24.1745 16.5729 23.3295 16.5729 22.3497C16.5729 21.3701 16.2184 20.6108 15.5094 20.0719C14.8271 19.5086 13.8482 19.0555 12.5714 18.7126V26.1708Z" fill="#49AA26"/>
</svg>
